# xmcd CD database file
#
# Track frame offsets:
#	150
#	18225
#	32925
#	52050
#	68625
#	87000
#	105525
#	121200
#	133650
#	146925
#	159300
#
# Disc length: 2285 seconds
#
# Revision: 0
# Processed by: cddbd v1.5PL3 Copyright (c) Steve Scherf et al.
# Submitted via: CDex 1.51
#
DISCID=9208eb0b
DTITLE=Herbie Mann - Plays
DYEAR=1900
DGENRE=Jazz
TTITLE0=Chicken Little
TTITLE1=Cuban Love Song
TTITLE2=The Things We Did Last Summer
TTITLE3=Deep Night
TTITLE4=Between The Devil And The Deep Blue Sea
TTITLE5=After Work
TTITLE6=Moon Dreams
TTITLE7=A Spring Morning
TTITLE8=Scuffles
TTITLE9=The Purple Grotto
TTITLE10=My Little Suede Shoes
EXTD=
EXTT0=
EXTT1=
EXTT2=
EXTT3=
EXTT4=
EXTT5=
EXTT6=
EXTT7=
EXTT8=
EXTT9=
EXTT10=
PLAYORDER=
